<svg xmlns="http://www.w3.org/2000/svg" width="1200" height="630" viewBox="0 0 1200 630">
  <defs>
    <linearGradient id="bg" x1="0%" y1="0%" x2="100%" y2="100%">
      <stop offset="0%" style="stop-color:#0F3D2E"/>
      <stop offset="50%" style="stop-color:#1a5c42"/>
      <stop offset="100%" style="stop-color:#0F3D2E"/>
    </linearGradient>
    <linearGradient id="gold" x1="0%" y1="0%" x2="100%" y2="100%">
      <stop offset="0%" style="stop-color:#C9A227"/>
      <stop offset="100%" style="stop-color:#dfbf47"/>
    </linearGradient>
  </defs>
  
  <!-- Background -->
  <rect width="1200" height="630" fill="url(#bg)"/>
  
  <!-- Decorative Pattern -->
  <g opacity="0.05">
    <rect x="0" y="0" width="40" height="40" fill="white"/>
    <rect x="40" y="40" width="40" height="40" fill="white"/>
    <rect x="80" y="80" width="40" height="40" fill="white"/>
    <rect x="120" y="120" width="40" height="40" fill="white"/>
    <rect x="160" y="160" width="40" height="40" fill="white"/>
    <rect x="200" y="200" width="40" height="40" fill="white"/>
    <rect x="240" y="240" width="40" height="40" fill="white"/>
    <rect x="280" y="280" width="40" height="40" fill="white"/>
    <rect x="320" y="320" width="40" height="40" fill="white"/>
    <rect x="360" y="360" width="40" height="40" fill="white"/>
    <rect x="400" y="400" width="40" height="40" fill="white"/>
    <rect x="440" y="440" width="40" height="40" fill="white"/>
    <rect x="480" y="480" width="40" height="40" fill="white"/>
    <rect x="520" y="520" width="40" height="40" fill="white"/>
    <rect x="560" y="560" width="40" height="40" fill="white"/>
    <rect x="600" y="600" width="40" height="40" fill="white"/>
    <rect x="640" y="640" width="40" height="40" fill="white"/>
    <rect x="680" y="680" width="40" height="40" fill="white"/>
    <rect x="720" y="720" width="40" height="40" fill="white"/>
    <rect x="760" y="760" width="40" height="40" fill="white"/>
    <rect x="800" y="800" width="40" height="40" fill="white"/>
    <rect x="840" y="840" width="40" height="40" fill="white"/>
    <rect x="880" y="880" width="40" height="40" fill="white"/>
    <rect x="920" y="920" width="40" height="40" fill="white"/>
    <rect x="960" y="960" width="40" height="40" fill="white"/>
    <rect x="1000" y="1000" width="40" height="40" fill="white"/>
    <rect x="1040" y="1040" width="40" height="40" fill="white"/>
    <rect x="1080" y="1080" width="40" height="40" fill="white"/>
    <rect x="1120" y="1120" width="40" height="40" fill="white"/>
    <rect x="1160" y="1160" width="40" height="40" fill="white"/>
    <rect x="1200" y="1200" width="40" height="40" fill="white"/>
  </g>
  
  <!-- Main Circle -->
  <circle cx="600" cy="280" r="120" fill="none" stroke="url(#gold)" stroke-width="3" opacity="0.3"/>
  <circle cx="600" cy="280" r="90" fill="none" stroke="url(#gold)" stroke-width="2" opacity="0.4"/>
  <circle cx="600" cy="280" r="60" fill="none" stroke="url(#gold)" stroke-width="1" opacity="0.5"/>
  
  <!-- Center Symbol -->
  <circle cx="600" cy="280" r="35" fill="url(#gold)" opacity="0.9"/>
  <line x1="600" y1="245" x2="600" y2="315" stroke="white" stroke-width="3" opacity="0.6"/>
  <line x1="565" y1="280" x2="635" y2="280" stroke="white" stroke-width="3" opacity="0.6"/>
  <circle cx="600" cy="280" r="15" fill="none" stroke="white" stroke-width="2" opacity="0.8"/>
  
  <!-- Title -->
  <text x="600" y="460" text-anchor="middle" font-family="Georgia, serif" font-size="64" font-weight="bold" fill="white">
    Bodo Research Memorial
  </text>
  
  <!-- Subtitle -->
  <text x="600" y="510" text-anchor="middle" font-family="Georgia, serif" font-size="28" fill="#C9A227">
    Digital Heritage Repository
  </text>
  
  <!-- Bottom Line -->
  <rect x="400" y="540" width="400" height="2" fill="url(#gold)" opacity="0.6"/>
  
  <!-- Decorative Dots -->
  <circle cx="300" cy="200" r="4" fill="#C9A227" opacity="0.5"/>
  <circle cx="900" cy="200" r="4" fill="#C9A227" opacity="0.5"/>
  <circle cx="350" cy="350" r="3" fill="#C9A227" opacity="0.3"/>
  <circle cx="850" cy="350" r="3" fill="#C9A227" opacity="0.3"/>
  <circle cx="280" cy="450" r="3" fill="#C9A227" opacity="0.4"/>
  <circle cx="920" cy="450" r="3" fill="#C9A227" opacity="0.4"/>
</svg>
